#!OML:ASF F:\VICON\USERDATA\INSTALL\Justin_Nancy\Justin_Nancy.ASF
:FULLY-SPECIFIED
:DEGREES
303
root 0.564933 17.3206 17.1476 -1.8521 -0.504509 3.02142
lowerback 7.90137 -0.181443 -2.40112
upperback 1.01642 -0.395989 1.43038
thorax -3.35181 -0.158637 2.8752
lowerneck -17.4927 -2.81834 -10.109
upperneck 21.54 -2.46987 5.6925
head 9.94352 -1.31996 3.35589
rclavicle 1.04362e-015 7.95139e-015
rhumerus -34.0615 -15.1452 -78.5911
rradius 27.9321
rwrist 8.67891
rhand -14.036 12.9527
rfingers 7.12502
rthumb 12.0944 -16.6777
lclavicle 1.04362e-015 7.95139e-015
lhumerus -27.4797 6.22217 84.3062
lradius 30.2203
lwrist -7.54854
lhand -16.7637 26.1545
lfingers 7.12502
lthumb 9.46337 415.922
rfemur -25.3721 -3.50375 17.4465
rtibia 63.6899
rfoot -9.1599 -6.70517
rtoes -6.7402
lfemur -8.62165 -2.82556 -27.1963
ltibia 28.943
lfoot -15.2366 0.322902
ltoes 3.67509
304
root 0.563781 17.3017 17.2831 -1.7926 -0.476343 3.37334
lowerback 7.86684 -0.194895 -2.80185
upperback 1.0268 -0.450387 1.35026
thorax -3.31559 -0.181814 3.02356
lowerneck -17.3672 -2.80256 -10.0547
upperneck 21.4139 -2.46132 5.64215
head 9.87295 -1.31679 3.32758
rclavicle 1.26725e-014 -7.15625e-015
rhumerus -34.1641 -15.2371 -78.5187
rradius 27.8529
rwrist 9.09479
rhand -14.3749 14.2196
rfingers 7.12502
rthumb 11.7676 -15.4298
lclavicle 1.26725e-014 -7.15625e-015
lhumerus -27.0136 6.01184 84.2561
lradius 30.2256
lwrist -7.53523
lhand -17.3292 25.8947
lfingers 7.12502
lthumb 8.91767 415.686
rfemur -26.2648 -3.64505 17.1113
rtibia 62.3734
rfoot -9.79917 -7.23396
rtoes -9.6691
lfemur -8.26835 -2.81185 -27.638
ltibia 29.1769
lfoot -15.8316 0.571599
ltoes 3.2838
305
root 0.556366 17.2868 17.4219 -1.74828 -0.439805 3.54208
lowerback 7.96214 -0.232933 -3.1395
upperback 0.995797 -0.531983 1.37385
thorax -3.39171 -0.216062 3.24908
lowerneck -17.2252 -2.77814 -10.0329
upperneck 21.2653 -2.41601 5.52385
head 9.78842 -1.30685 3.28513
rclavicle 3.77691e-015 -2.62396e-014
rhumerus -34.2731 -15.1646 -78.426
rradius 27.686
rwrist 9.43966
rhand -13.9024 13.1666
rfingers 7.12502
rthumb 12.2232 -16.4562
lclavicle 3.77691e-015 -2.62396e-014
lhumerus -26.6354 5.96224 84.191
lradius 30.2847
lwrist -7.95476
lhand -16.8459 26.4798
lfingers 7.12502
lthumb 9.38402 416.251
rfemur -27.0191 -3.55933 16.9865
rtibia 60.8098
rfoot -10.5195 -7.93158
rtoes -11.1746
lfemur -7.8132 -2.7731 -27.8352
ltibia 29.2185
lfoot -16.2645 0.654568
ltoes 3.04911
306
root 0.554893 17.2724 17.5557 -1.70599 -0.332083 3.65848
lowerback 8.07429 -0.306951 -3.29312
upperback 0.938775 -0.647453 1.37853
thorax -3.50268 -0.268225 3.35536
lowerneck -16.8045 -2.80049 -10.163
upperneck 20.9361 -2.47276 5.62102
head 9.60195 -1.33248 3.32808
rclavicle -2.5842e-015 6.36111e-015
rhumerus -34.555 -15.0259 -78.3603
rradius 27.6879
rwrist 9.60288
rhand -12.9135 10.8964
rfingers 7.12502
rthumb 13.1766 -18.6673
lclavicle -2.5842e-015 6.36111e-015
lhumerus -26.4928 5.6491 84.176
lradius 30.698
lwrist -8.03672
lhand -16.2395 27.4707
lfingers 7.12502
lthumb 9.96911 417.215
rfemur -27.6479 -3.57003 16.8756
rtibia 59.0626
rfoot -10.4484 -8.46777
rtoes -10.3467
lfemur -7.27545 -2.83646 -28.011
ltibia 29.1184
lfoot -16.6462 0.778511
ltoes 3.38128
307
root 0.558819 17.267 17.6868 -1.55025 -0.109375 3.73556
lowerback 8.14089 -0.435535 -3.31969
upperback 0.856585 -0.823893 1.36937
thorax -3.61058 -0.351982 3.38196
lowerneck -16.7234 -2.78913 -10.1179
upperneck 20.8812 -2.4749 5.61195
head 9.56686 -1.33108 3.31615
rclavicle -2.98177e-015 -4.77083e-015
rhumerus -34.7832 -15.0511 -78.2868
rradius 27.6995
rwrist 10.142
rhand -12.4287 10.0127
rfingers 7.12502
rthumb 13.6439 -19.5201
lclavicle -2.98177e-015 -4.77083e-015
lhumerus -26.3116 5.27207 84.1587
lradius 31.042
lwrist -7.92976
lhand -16.4485 27.4329
lfingers 7.12502
lthumb 9.76743 417.186
rfemur -28.2614 -3.69491 16.778
rtibia 57.1189
rfoot -10.167 -8.96802
rtoes -8.08235
lfemur -6.78394 -2.9318 -28.1445
ltibia 28.8802
lfoot -16.957 0.800759
ltoes 2.98346
308
root 0.555864 17.2594 17.8215 -1.40512 -0.00763688 3.86962
lowerback 8.18747 -0.476874 -3.50844
upperback 0.9015 -0.897106 1.36496
thorax -3.58104 -0.386995 3.49239
lowerneck -17.2639 -2.77273 -10.0761
upperneck 21.1298 -2.4169 5.63676
head 9.74924 -1.29527 3.32993
rclavicle -5.26779e-015 -3.97569e-015
rhumerus -34.7567 -15.2754 -78.1997
rradius 27.7623
rwrist 10.4569
rhand -12.2526 9.86091
rfingers 7.12502
rthumb 13.8135 -19.6604
lclavicle -5.26779e-015 -3.97569e-015
lhumerus -25.8044 4.81631 84.1932
lradius 31.421
lwrist -7.6752
lhand -16.4445 27.3629
lfingers 7.12502
lthumb 9.77132 417.116
rfemur -28.7872 -3.56881 16.6524
rtibia 55.0371
rfoot -10.4516 -9.68744
rtoes -8.01854
lfemur -6.24235 -2.95763 -28.3157
ltibia 28.5595
lfoot -17.2428 0.833214
ltoes 2.58038
309
root 0.55225 17.2578 17.9654 -1.34271 -0.04874 4.04853
lowerback 8.05912 -0.472619 -3.78091
upperback 1.05615 -0.908847 1.38976
thorax -3.34288 -0.397139 3.66931
lowerneck -17.5389 -2.75467 -10.1184
upperneck 21.0921 -2.34348 5.61647
head 9.78112 -1.26276 3.33885
rclavicle -1.29707e-014 1.27222e-014
rhumerus -34.8015 -15.0835 -78.231
rradius 28.1151
rwrist 10.2684
rhand -12.1974 9.64789
rfingers 7.12502
rthumb 13.8667 -19.8698
lclavicle -1.29707e-014 1.27222e-014
lhumerus -25.24 4.68469 84.3068
lradius 31.6612
lwrist -7.40229
lhand -17.2907 26.3462
lfingers 7.12502
lthumb 8.95486 416.136
rfemur -29.1798 -3.28333 16.4559
rtibia 52.8135
rfoot -10.4775 -10.3879
rtoes -8.11891
lfemur -5.52065 -2.888 -28.5334
ltibia 28.1401
lfoot -17.5165 0.918366
ltoes 2.56893
310
root 0.543764 17.2597 18.1042 -1.21716 -0.248472 3.91331
lowerback 7.89092 -0.429489 -3.77599
upperback 1.1388 -0.84139 1.47126
thorax -3.16807 -0.368875 3.74042
lowerneck -17.391 -2.82201 -10.0773
upperneck 20.7519 -2.45121 5.59232
head 9.64225 -1.30815 3.30243
rclavicle -2.05245e-014 1.59028e-015
rhumerus -34.8919 -15.1101 -78.2205
rradius 28.1745
rwrist 10.2688
rhand -12.5047 10.0978
rfingers 7.12502
rthumb 13.5706 -19.4399
lclavicle -2.05245e-014 1.59028e-015
lhumerus -24.8086 4.72721 84.2737
lradius 31.6918
lwrist -7.33869
lhand -17.7054 24.9069
lfingers 7.12502
lthumb 8.55462 414.714
rfemur -29.6189 -2.69481 16.606
rtibia 50.4394
rfoot -9.95231 -11.2205
rtoes -7.50125
lfemur -4.8851 -2.80714 -28.3835
ltibia 27.6438
lfoot -17.6861 1.07729
ltoes 2.52038
311
root 0.534764 17.2616 18.244 -1.03024 -0.282596 3.95251
lowerback 7.82253 -0.481032 -3.90846
upperback 1.06499 -0.919868 1.46211
thorax -3.19733 -0.404427 3.81352
lowerneck -17.3686 -2.8409 -9.98303
upperneck 20.7566 -2.50981 5.60318
head 9.64331 -1.32712 3.28276
rclavicle 2.18663e-015 7.95139e-015
rhumerus -35.0437 -15.0649 -78.2596
rradius 28.1937
rwrist 10.3204
rhand -12.4248 10.3261
rfingers 7.12502
rthumb 13.6476 -19.2065
lclavicle 2.18663e-015 7.95139e-015
lhumerus -24.523 4.93839 83.9877
lradius 31.6431
lwrist -8.07964
lhand -17.1665 24.1603
lfingers 7.12502
lthumb 9.07466 413.945
rfemur -29.9514 -2.32644 16.5527
rtibia 47.9246
rfoot -9.2729 -11.8977
rtoes -7.80426
lfemur -4.28767 -2.73021 -28.3973
ltibia 27.1193
lfoot -17.825 1.10128
ltoes 2.29004
